<svg xmlns="http://www.w3.org/2000/svg" width="12" height="20" viewBox="0 0 12 20"><g><g><path d="M.208 10.46l9.605 9.339a.66.66 0 0 0 .948 0l1.03-1.003a.624.624 0 0 0 .206-.46.625.625 0 0 0-.206-.461l-8.1-7.876 8.1-7.876a.625.625 0 0 0 .206-.46.623.623 0 0 0-.206-.461L10.761.2a.66.66 0 0 0-.948 0L.209 9.538a.626.626 0 0 0-.206.461c0 .174.068.327.206.461z"/><path fill="#fff" d="M.208 10.46l9.605 9.339a.66.66 0 0 0 .948 0l1.03-1.003a.624.624 0 0 0 .206-.46.625.625 0 0 0-.206-.461l-8.1-7.876 8.1-7.876a.625.625 0 0 0 .206-.46.623.623 0 0 0-.206-.461L10.761.2a.66.66 0 0 0-.948 0L.209 9.538a.626.626 0 0 0-.206.461c0 .174.068.327.206.461z"/></g></g></svg>