<svg xmlns="http://www.w3.org/2000/svg" width="15" height="12" viewBox="0 0 15 12"><g><g><path d="M11.877 10.138c.225-.213.497-.32.816-.32.318 0 .59.107.815.32.226.213.339.47.339.772 0 .3-.113.558-.339.771-.225.213-.497.32-.815.32-.319 0-.591-.107-.816-.32a1.025 1.025 0 0 1-.338-.771c0-.302.112-.559.338-.772zM15 1.634V6a.522.522 0 0 1-.144.363.571.571 0 0 1-.37.183l-9.411 1.04c.006.04.02.101.04.183.021.083.04.158.054.226a.87.87 0 0 1 .023.188c0 .09-.072.273-.216.545h8.293c.156 0 .292.055.406.162a.51.51 0 0 1 .171.384.511.511 0 0 1-.171.384.572.572 0 0 1-.406.162H4.615c.319 0 .59.106.816.32.225.212.338.47.338.77 0 .302-.113.559-.338.772-.226.213-.497.32-.816.32-.319 0-.59-.107-.816-.32a1.024 1.024 0 0 1-.338-.771c0-.302.113-.559.338-.772.226-.213.497-.32.816-.32h-.577a.572.572 0 0 1-.406-.161.51.51 0 0 1-.171-.384c0-.08.033-.192.1-.337.065-.145.154-.314.265-.507l.185-.324-1.596-7.016H.576A.57.57 0 0 1 .171.927.511.511 0 0 1-.001.543C0 .396.057.267.171.16a.573.573 0 0 1 .405-.161h2.308a.58.58 0 0 1 .437.187c.046.051.085.12.118.21.033.087.055.162.067.225l.05.251c.02.106.034.178.04.218h10.828a.57.57 0 0 1 .405.162.51.51 0 0 1 .171.383zM4.615 9.818z"/><path d="M11.877 10.138c.225-.213.497-.32.816-.32.318 0 .59.107.815.32.226.213.339.47.339.772 0 .3-.113.558-.339.771-.225.213-.497.32-.815.32-.319 0-.591-.107-.816-.32a1.025 1.025 0 0 1-.338-.771c0-.302.112-.559.338-.772zM15 1.634V6a.522.522 0 0 1-.144.363.571.571 0 0 1-.37.183l-9.411 1.04c.006.04.02.101.04.183.021.083.04.158.054.226a.87.87 0 0 1 .023.188c0 .09-.072.273-.216.545h8.293c.156 0 .292.055.406.162a.51.51 0 0 1 .171.384.511.511 0 0 1-.171.384.572.572 0 0 1-.406.162H4.615c.319 0 .59.106.816.32.225.212.338.47.338.77 0 .302-.113.559-.338.772-.226.213-.497.32-.816.32-.319 0-.59-.107-.816-.32a1.024 1.024 0 0 1-.338-.771c0-.302.113-.559.338-.772.226-.213.497-.32.816-.32h-.577a.572.572 0 0 1-.406-.161.51.51 0 0 1-.171-.384c0-.08.033-.192.1-.337.065-.145.154-.314.265-.507l.185-.324-1.596-7.016H.576A.57.57 0 0 1 .171.927.511.511 0 0 1-.001.543C0 .396.057.267.171.16a.573.573 0 0 1 .405-.161h2.308a.58.58 0 0 1 .437.187c.046.051.085.12.118.21.033.087.055.162.067.225l.05.251c.02.106.034.178.04.218h10.828a.57.57 0 0 1 .405.162.51.51 0 0 1 .171.383zM4.615 9.818z"/></g></g></svg>