<?xml version="1.0" encoding="UTF-8"?>
<svg id="SVGDoc" width="6" height="12" xmlns="http://www.w3.org/2000/svg" version="1.1" xmlns:xlink="http://www.w3.org/1999/xlink" xmlns:avocode="https://avocode.com/" viewBox="0 0 6 12"><defs></defs><desc>Generated with Avocode.</desc><g><g opacity="-1"><title>fb</title><path d="M3.99229,3.93103v0v-1.03394c0,-0.15498 0.00767,-0.27564 0.02335,-0.3609c0.01556,-0.08454 0.05081,-0.16835 0.10551,-0.25072c0.0547,-0.08273 0.14328,-0.14017 0.26573,-0.1716c0.12245,-0.03143 0.28542,-0.04696 0.48866,-0.04696h1.10928v0v-2.06823v0h-1.77361c-1.02642,0 -1.76342,0.22687 -2.21134,0.68062c-0.44804,0.45411 -0.67188,1.12281 -0.67188,2.00646v1.24528v0h-1.32854v0v2.06823v0h1.32843v0v6.00059v0h2.66441v0v-6.00059v0h1.77372v0l0.23438,-2.06823v0z" fill="#000000" fill-opacity="1"></path><path d="M3.99229,3.93103v0v-1.03394c0,-0.15498 0.00767,-0.27564 0.02335,-0.3609c0.01556,-0.08454 0.05081,-0.16835 0.10551,-0.25072c0.0547,-0.08273 0.14328,-0.14017 0.26573,-0.1716c0.12245,-0.03143 0.28542,-0.04696 0.48866,-0.04696h1.10928v0v-2.06823v0h-1.77361c-1.02642,0 -1.76342,0.22687 -2.21134,0.68062c-0.44804,0.45411 -0.67188,1.12281 -0.67188,2.00646v1.24528v0h-1.32854v0v2.06823v0h1.32843v0v6.00059v0h2.66441v0v-6.00059v0h1.77372v0l0.23438,-2.06823v0z" fill="#1e2633" fill-opacity="1"></path></g></g></svg>