<?xml version="1.0" encoding="UTF-8"?>
<svg id="SVGDoc" width="12" height="12" xmlns="http://www.w3.org/2000/svg" version="1.1" xmlns:xlink="http://www.w3.org/1999/xlink" xmlns:avocode="https://avocode.com/" viewBox="0 0 12 12"><defs></defs><desc>Generated with Avocode.</desc><g><g opacity="-1"><title>gplus</title><path d="M7.21506,8.25355c0.07942,0.23735 0.11913,0.49385 0.11913,0.76769c0,0.76913 -0.33657,1.44722 -1.00971,2.03391c-0.73071,0.62968 -1.74053,0.9447 -3.02902,0.9447c-0.2837,0 -0.57095,-0.02384 -0.86185,-0.07189c-0.29079,-0.04805 -0.58411,-0.12897 -0.87971,-0.24169c-0.29572,-0.11308 -0.55664,-0.25252 -0.78255,-0.41834c-0.22602,-0.16618 -0.41107,-0.38005 -0.55527,-0.64197c-0.1442,-0.26228 -0.21641,-0.55418 -0.21641,-0.87643c0,-0.29298 0.08904,-0.6174 0.26688,-0.97361c0.15392,-0.30744 0.38464,-0.57333 0.69237,-0.79695c0.30762,-0.2229 0.6562,-0.39414 1.04565,-0.51155c0.38956,-0.11813 0.76206,-0.20484 1.11786,-0.26011c0.35591,-0.05491 0.7164,-0.08779 1.08181,-0.09718c-0.30785,-0.3992 -0.46154,-0.75757 -0.46154,-1.07476c0,-0.0578 0.00481,-0.11416 0.01442,-0.16943c0.00961,-0.05563 0.02163,-0.10188 0.03605,-0.14053c0.01442,-0.03829 0.03365,-0.09032 0.05768,-0.15534c0.02415,-0.06467 0.04086,-0.11669 0.05047,-0.15498c-0.19238,0.0242 -0.3606,0.03577 -0.5048,0.03577c-0.7164,0 -1.3306,-0.23554 -1.84261,-0.70663c-0.51201,-0.47073 -0.76813,-1.06248 -0.76813,-1.77381c0,-0.67303 0.22831,-1.27562 0.68516,-1.80668c0.45673,-0.53106 1.01933,-0.87101 1.68755,-1.02021c0.45181,-0.09646 0.90134,-0.14451 1.34846,-0.14451h3.15147l-0.97355,0.56971h-0.97355c0.34149,0.21604 0.60585,0.51877 0.7933,0.90858c0.18745,0.38944 0.2813,0.79586 0.2813,1.2189c0,0.35584 -0.05527,0.67159 -0.16582,0.94796c-0.11066,0.27709 -0.24525,0.49927 -0.40375,0.66762c-0.15873,0.16835 -0.31734,0.32297 -0.47607,0.46495c-0.15862,0.14198 -0.2932,0.28865 -0.40375,0.44002c-0.11055,0.15173 -0.16594,0.31358 -0.16594,0.48698c0,0.125 0.03971,0.24747 0.11902,0.36777c0.07931,0.1203 0.18265,0.23554 0.31002,0.34609c0.12737,0.11091 0.26802,0.22615 0.42194,0.34681c0.15381,0.11958 0.30762,0.25288 0.46154,0.39956c0.15392,0.14667 0.29446,0.30527 0.42183,0.47651c0.12749,0.17016 0.23083,0.37463 0.31013,0.61306zM5.13807,4.58239c0.20908,-0.29082 0.31368,-0.67701 0.31368,-1.15785c0,-0.28829 -0.03971,-0.595 -0.11902,-0.91978c-0.07931,-0.32441 -0.19238,-0.63799 -0.33897,-0.94073c-0.1466,-0.30346 -0.34859,-0.55346 -0.60574,-0.74998c-0.25726,-0.19725 -0.54451,-0.29588 -0.86185,-0.29588c-0.44712,0 -0.7933,0.16618 -1.03855,0.49746c-0.24513,0.332 -0.36781,0.72867 -0.36781,1.19c0,0.22615 0.02769,0.46459 0.08297,0.71422c0.05539,0.24999 0.14065,0.49999 0.256,0.74998c0.11547,0.25036 0.25005,0.4747 0.40386,0.67448c0.15381,0.19942 0.34126,0.36126 0.56248,0.48662c0.22121,0.125 0.45444,0.18786 0.69958,0.18786c0.46646,0 0.80418,-0.14559 1.01337,-0.43641zM6.31715,9.64153c0,-0.10115 -0.01087,-0.19833 -0.0325,-0.29226c-0.02151,-0.09393 -0.0444,-0.18027 -0.06832,-0.25975c-0.02415,-0.07912 -0.06615,-0.16185 -0.12623,-0.24891c-0.0602,-0.08634 -0.11066,-0.15968 -0.15152,-0.22001c-0.04086,-0.05997 -0.1046,-0.13078 -0.19112,-0.21242c-0.08652,-0.08165 -0.15266,-0.14342 -0.19821,-0.18424c-0.04578,-0.04046 -0.12268,-0.10224 -0.23083,-0.18352c-0.10815,-0.08165 -0.18276,-0.13728 -0.2235,-0.16618c-0.04097,-0.0289 -0.12028,-0.08345 -0.23804,-0.16582c-0.11787,-0.08165 -0.19112,-0.13186 -0.21996,-0.15137c-0.08171,-0.00975 -0.20199,-0.01409 -0.36072,-0.01409c-0.25955,0 -0.51441,0.01662 -0.76435,0.05022c-0.25005,0.0336 -0.50961,0.09393 -0.77888,0.18027c-0.26928,0.0867 -0.50491,0.19725 -0.70679,0.332c-0.20187,0.13439 -0.36781,0.31466 -0.4977,0.54081c-0.12978,0.22543 -0.19466,0.48301 -0.19466,0.77166c0,0.32694 0.08526,0.61884 0.256,0.87606c0.17063,0.25758 0.39425,0.45917 0.67062,0.60584c0.27649,0.14631 0.56625,0.25614 0.86906,0.32803c0.30281,0.07225 0.60814,0.10838 0.91587,0.10838c0.2837,0 0.55424,-0.02998 0.81139,-0.09032c0.25726,-0.05997 0.49885,-0.1539 0.72487,-0.28142c0.22591,-0.12716 0.40501,-0.30382 0.53719,-0.52997c0.13229,-0.22579 0.19833,-0.49023 0.19833,-0.79297zM12.00018,1.8451v0.92339h-1.84605v1.84606h-0.92331v-1.84606h-1.84628v-0.92339h1.84628v-1.84606h0.92331v1.84606z" fill="#000000" fill-opacity="1"></path><path d="M7.21506,8.25355c0.07942,0.23735 0.11913,0.49385 0.11913,0.76769c0,0.76913 -0.33657,1.44722 -1.00971,2.03391c-0.73071,0.62968 -1.74053,0.9447 -3.02902,0.9447c-0.2837,0 -0.57095,-0.02384 -0.86185,-0.07189c-0.29079,-0.04805 -0.58411,-0.12897 -0.87971,-0.24169c-0.29572,-0.11308 -0.55664,-0.25252 -0.78255,-0.41834c-0.22602,-0.16618 -0.41107,-0.38005 -0.55527,-0.64197c-0.1442,-0.26228 -0.21641,-0.55418 -0.21641,-0.87643c0,-0.29298 0.08904,-0.6174 0.26688,-0.97361c0.15392,-0.30744 0.38464,-0.57333 0.69237,-0.79695c0.30762,-0.2229 0.6562,-0.39414 1.04565,-0.51155c0.38956,-0.11813 0.76206,-0.20484 1.11786,-0.26011c0.35591,-0.05491 0.7164,-0.08779 1.08181,-0.09718c-0.30785,-0.3992 -0.46154,-0.75757 -0.46154,-1.07476c0,-0.0578 0.00481,-0.11416 0.01442,-0.16943c0.00961,-0.05563 0.02163,-0.10188 0.03605,-0.14053c0.01442,-0.03829 0.03365,-0.09032 0.05768,-0.15534c0.02415,-0.06467 0.04086,-0.11669 0.05047,-0.15498c-0.19238,0.0242 -0.3606,0.03577 -0.5048,0.03577c-0.7164,0 -1.3306,-0.23554 -1.84261,-0.70663c-0.51201,-0.47073 -0.76813,-1.06248 -0.76813,-1.77381c0,-0.67303 0.22831,-1.27562 0.68516,-1.80668c0.45673,-0.53106 1.01933,-0.87101 1.68755,-1.02021c0.45181,-0.09646 0.90134,-0.14451 1.34846,-0.14451h3.15147l-0.97355,0.56971h-0.97355c0.34149,0.21604 0.60585,0.51877 0.7933,0.90858c0.18745,0.38944 0.2813,0.79586 0.2813,1.2189c0,0.35584 -0.05527,0.67159 -0.16582,0.94796c-0.11066,0.27709 -0.24525,0.49927 -0.40375,0.66762c-0.15873,0.16835 -0.31734,0.32297 -0.47607,0.46495c-0.15862,0.14198 -0.2932,0.28865 -0.40375,0.44002c-0.11055,0.15173 -0.16594,0.31358 -0.16594,0.48698c0,0.125 0.03971,0.24747 0.11902,0.36777c0.07931,0.1203 0.18265,0.23554 0.31002,0.34609c0.12737,0.11091 0.26802,0.22615 0.42194,0.34681c0.15381,0.11958 0.30762,0.25288 0.46154,0.39956c0.15392,0.14667 0.29446,0.30527 0.42183,0.47651c0.12749,0.17016 0.23083,0.37463 0.31013,0.61306zM5.13807,4.58239c0.20908,-0.29082 0.31368,-0.67701 0.31368,-1.15785c0,-0.28829 -0.03971,-0.595 -0.11902,-0.91978c-0.07931,-0.32441 -0.19238,-0.63799 -0.33897,-0.94073c-0.1466,-0.30346 -0.34859,-0.55346 -0.60574,-0.74998c-0.25726,-0.19725 -0.54451,-0.29588 -0.86185,-0.29588c-0.44712,0 -0.7933,0.16618 -1.03855,0.49746c-0.24513,0.332 -0.36781,0.72867 -0.36781,1.19c0,0.22615 0.02769,0.46459 0.08297,0.71422c0.05539,0.24999 0.14065,0.49999 0.256,0.74998c0.11547,0.25036 0.25005,0.4747 0.40386,0.67448c0.15381,0.19942 0.34126,0.36126 0.56248,0.48662c0.22121,0.125 0.45444,0.18786 0.69958,0.18786c0.46646,0 0.80418,-0.14559 1.01337,-0.43641zM6.31715,9.64153c0,-0.10115 -0.01087,-0.19833 -0.0325,-0.29226c-0.02151,-0.09393 -0.0444,-0.18027 -0.06832,-0.25975c-0.02415,-0.07912 -0.06615,-0.16185 -0.12623,-0.24891c-0.0602,-0.08634 -0.11066,-0.15968 -0.15152,-0.22001c-0.04086,-0.05997 -0.1046,-0.13078 -0.19112,-0.21242c-0.08652,-0.08165 -0.15266,-0.14342 -0.19821,-0.18424c-0.04578,-0.04046 -0.12268,-0.10224 -0.23083,-0.18352c-0.10815,-0.08165 -0.18276,-0.13728 -0.2235,-0.16618c-0.04097,-0.0289 -0.12028,-0.08345 -0.23804,-0.16582c-0.11787,-0.08165 -0.19112,-0.13186 -0.21996,-0.15137c-0.08171,-0.00975 -0.20199,-0.01409 -0.36072,-0.01409c-0.25955,0 -0.51441,0.01662 -0.76435,0.05022c-0.25005,0.0336 -0.50961,0.09393 -0.77888,0.18027c-0.26928,0.0867 -0.50491,0.19725 -0.70679,0.332c-0.20187,0.13439 -0.36781,0.31466 -0.4977,0.54081c-0.12978,0.22543 -0.19466,0.48301 -0.19466,0.77166c0,0.32694 0.08526,0.61884 0.256,0.87606c0.17063,0.25758 0.39425,0.45917 0.67062,0.60584c0.27649,0.14631 0.56625,0.25614 0.86906,0.32803c0.30281,0.07225 0.60814,0.10838 0.91587,0.10838c0.2837,0 0.55424,-0.02998 0.81139,-0.09032c0.25726,-0.05997 0.49885,-0.1539 0.72487,-0.28142c0.22591,-0.12716 0.40501,-0.30382 0.53719,-0.52997c0.13229,-0.22579 0.19833,-0.49023 0.19833,-0.79297zM12.00018,1.8451v0.92339h-1.84605v1.84606h-0.92331v-1.84606h-1.84628v-0.92339h1.84628v-1.84606h0.92331v1.84606z" fill="#1e2633" fill-opacity="1"></path></g></g></svg>