<svg xmlns="http://www.w3.org/2000/svg" width="12" height="12" viewBox="0 0 12 12"><g><g><path d="M12 11.076c0 .25-.091.466-.274.65a.886.886 0 0 1-.649.273.856.856 0 0 1-.649-.274L7.954 9.258c-.86.597-1.82.895-2.877.895a4.993 4.993 0 0 1-1.973-.4 5.089 5.089 0 0 1-1.622-1.082A5.075 5.075 0 0 1 .4 7.05 4.995 4.995 0 0 1 0 5.075c0-.687.133-1.344.4-1.972a5.073 5.073 0 0 1 1.082-1.622A5.069 5.069 0 0 1 3.104.399 4.987 4.987 0 0 1 5.077 0c.687 0 1.345.133 1.973.4a5.069 5.069 0 0 1 1.622 1.082c.454.454.815.995 1.082 1.622.267.628.4 1.285.4 1.972a4.938 4.938 0 0 1-.894 2.879l2.473 2.474a.88.88 0 0 1 .267.648zm-3.692-6c0-.89-.316-1.65-.948-2.283a3.112 3.112 0 0 0-2.283-.948c-.89 0-1.65.316-2.283.948a3.113 3.113 0 0 0-.948 2.282c0 .89.316 1.651.948 2.283a3.112 3.112 0 0 0 2.283.949c.89 0 1.65-.316 2.283-.949a3.112 3.112 0 0 0 .948-2.283z"/><path d="M12 11.076c0 .25-.091.466-.274.65a.886.886 0 0 1-.649.273.856.856 0 0 1-.649-.274L7.954 9.258c-.86.597-1.82.895-2.877.895a4.993 4.993 0 0 1-1.973-.4 5.089 5.089 0 0 1-1.622-1.082A5.075 5.075 0 0 1 .4 7.05 4.995 4.995 0 0 1 0 5.075c0-.687.133-1.344.4-1.972a5.073 5.073 0 0 1 1.082-1.622A5.069 5.069 0 0 1 3.104.399 4.987 4.987 0 0 1 5.077 0c.687 0 1.345.133 1.973.4a5.069 5.069 0 0 1 1.622 1.082c.454.454.815.995 1.082 1.622.267.628.4 1.285.4 1.972a4.938 4.938 0 0 1-.894 2.879l2.473 2.474a.88.88 0 0 1 .267.648zm-3.692-6c0-.89-.316-1.65-.948-2.283a3.112 3.112 0 0 0-2.283-.948c-.89 0-1.65.316-2.283.948a3.113 3.113 0 0 0-.948 2.282c0 .89.316 1.651.948 2.283a3.112 3.112 0 0 0 2.283.949c.89 0 1.65-.316 2.283-.949a3.112 3.112 0 0 0 .948-2.283z"/></g></g></svg>