<?xml version="1.0" encoding="UTF-8"?>
<svg id="SVGDoc" width="15" height="12" xmlns="http://www.w3.org/2000/svg" version="1.1" xmlns:xlink="http://www.w3.org/1999/xlink" xmlns:avocode="https://avocode.com/" viewBox="0 0 15 12"><defs></defs><desc>Generated with Avocode.</desc><g><g opacity="-1"><title>twitter</title><path d="M15.0015,1.42567c-0.59017,0.24999 -1.18057,0.40606 -1.77063,0.46892c0.66639,-0.39378 1.11706,-0.94976 1.35201,-1.66868c-0.60951,0.35621 -1.25999,0.60006 -1.95179,0.7312c-0.60928,-0.63727 -1.35807,-0.9559 -2.24659,-0.9559c-0.85041,0 -1.57551,0.29551 -2.17529,0.88546c-0.59978,0.5903 -0.89962,1.30416 -0.89962,2.14193c0,0.22434 0.02529,0.45591 0.0761,0.69327c-1.25668,-0.0625 -2.43542,-0.37319 -3.53668,-0.93242c-1.10104,-0.5596 -2.03568,-1.30452 -2.80346,-2.2355c-0.27935,0.46856 -0.41897,0.97794 -0.41897,1.52778c0,0.51877 0.12371,0.99962 0.37136,1.44325c0.24754,0.44327 0.58067,0.80309 0.99964,1.07765c-0.49519,-0.01842 -0.95844,-0.14703 -1.38988,-0.38438v0.03793c0,0.73084 0.23312,1.3728 0.69958,1.9259c0.46646,0.55309 1.05515,0.90171 1.76594,1.04477c-0.26653,0.06936 -0.53638,0.10332 -0.80921,0.10332c-0.17773,0 -0.37125,-0.01553 -0.58067,-0.04696c0.19672,0.60656 0.55847,1.10438 1.08524,1.49527c0.52677,0.39053 1.12335,0.59175 1.78974,0.60439c-1.11694,0.86234 -2.38941,1.29332 -3.81741,1.29332c-0.27294,0 -0.52036,-0.01228 -0.74249,-0.03757c1.42799,0.90605 3.0019,1.35871 4.72183,1.35871c1.09165,0 2.11658,-0.16979 3.07468,-0.5101c0.95856,-0.34067 1.77715,-0.79695 2.45613,-1.36883c0.67909,-0.57152 1.26457,-1.22938 1.75632,-1.97286c0.49187,-0.74348 0.85831,-1.51984 1.09943,-2.32871c0.24124,-0.80959 0.36186,-1.61991 0.36186,-2.43239c0,-0.17485 -0.00309,-0.30635 -0.00961,-0.39378c0.6031,-0.43099 1.11729,-0.95265 1.54243,-1.56499z" fill="#000000" fill-opacity="1"></path><path d="M15.0015,1.42567c-0.59017,0.24999 -1.18057,0.40606 -1.77063,0.46892c0.66639,-0.39378 1.11706,-0.94976 1.35201,-1.66868c-0.60951,0.35621 -1.25999,0.60006 -1.95179,0.7312c-0.60928,-0.63727 -1.35807,-0.9559 -2.24659,-0.9559c-0.85041,0 -1.57551,0.29551 -2.17529,0.88546c-0.59978,0.5903 -0.89962,1.30416 -0.89962,2.14193c0,0.22434 0.02529,0.45591 0.0761,0.69327c-1.25668,-0.0625 -2.43542,-0.37319 -3.53668,-0.93242c-1.10104,-0.5596 -2.03568,-1.30452 -2.80346,-2.2355c-0.27935,0.46856 -0.41897,0.97794 -0.41897,1.52778c0,0.51877 0.12371,0.99962 0.37136,1.44325c0.24754,0.44327 0.58067,0.80309 0.99964,1.07765c-0.49519,-0.01842 -0.95844,-0.14703 -1.38988,-0.38438v0.03793c0,0.73084 0.23312,1.3728 0.69958,1.9259c0.46646,0.55309 1.05515,0.90171 1.76594,1.04477c-0.26653,0.06936 -0.53638,0.10332 -0.80921,0.10332c-0.17773,0 -0.37125,-0.01553 -0.58067,-0.04696c0.19672,0.60656 0.55847,1.10438 1.08524,1.49527c0.52677,0.39053 1.12335,0.59175 1.78974,0.60439c-1.11694,0.86234 -2.38941,1.29332 -3.81741,1.29332c-0.27294,0 -0.52036,-0.01228 -0.74249,-0.03757c1.42799,0.90605 3.0019,1.35871 4.72183,1.35871c1.09165,0 2.11658,-0.16979 3.07468,-0.5101c0.95856,-0.34067 1.77715,-0.79695 2.45613,-1.36883c0.67909,-0.57152 1.26457,-1.22938 1.75632,-1.97286c0.49187,-0.74348 0.85831,-1.51984 1.09943,-2.32871c0.24124,-0.80959 0.36186,-1.61991 0.36186,-2.43239c0,-0.17485 -0.00309,-0.30635 -0.00961,-0.39378c0.6031,-0.43099 1.11729,-0.95265 1.54243,-1.56499z" fill="#1e2633" fill-opacity="1"></path></g></g></svg>