<?xml version="1.0" encoding="UTF-8"?>
<svg id="SVGDoc" width="20" height="20" xmlns="http://www.w3.org/2000/svg" version="1.1" xmlns:xlink="http://www.w3.org/1999/xlink" xmlns:avocode="https://avocode.com/" viewBox="0 0 20 20"><defs></defs><desc>Generated with Avocode.</desc><g><g><title> cross cancel, Budicon</title><path d="M0.19914,0.19726c0.27431,-0.2744 0.71903,-0.2744 0.99346,0l8.80159,8.80163l8.80159,-8.80163c0.27443,-0.2744 0.71915,-0.2744 0.99346,0c0.27443,0.2744 0.27443,0.71956 0,0.99349l-8.8017,8.80151l8.8017,8.80173c0.27443,0.2744 0.27443,0.71909 0,0.99301c-0.27431,0.27472 -0.71903,0.27472 -0.99346,0l-8.80159,-8.8014l-8.80159,8.8014c-0.27443,0.27472 -0.71915,0.27472 -0.99346,0c-0.27443,-0.27392 -0.27443,-0.71861 0,-0.99301l8.8017,-8.80173l-8.8017,-8.80151c-0.27443,-0.27392 -0.27443,-0.71909 0,-0.99349z" fill="#3c4042" fill-opacity="1"></path><path d="M0.19914,0.19726c0.27431,-0.2744 0.71903,-0.2744 0.99346,0l8.80159,8.80163l8.80159,-8.80163c0.27443,-0.2744 0.71915,-0.2744 0.99346,0c0.27443,0.2744 0.27443,0.71956 0,0.99349l-8.8017,8.80151l8.8017,8.80173c0.27443,0.2744 0.27443,0.71909 0,0.99301c-0.27431,0.27472 -0.71903,0.27472 -0.99346,0l-8.80159,-8.8014l-8.80159,8.8014c-0.27443,0.27472 -0.71915,0.27472 -0.99346,0c-0.27443,-0.27392 -0.27443,-0.71861 0,-0.99301l8.8017,-8.80173l-8.8017,-8.80151c-0.27443,-0.27392 -0.27443,-0.71909 0,-0.99349z" fill="#ffffff" fill-opacity="1"></path></g></g></svg>