<svg xmlns="http://www.w3.org/2000/svg" width="12" height="20"><path d="M11.791 9.538L2.187.2a.664.664 0 00-.948 0L.21 1.202a.625.625 0 00-.206.461.62.62 0 00.206.46L8.309 10l-8.1 7.877a.623.623 0 00-.206.46c0 .174.068.328.206.461l1.03 1.002a.66.66 0 00.948 0l9.604-9.34a.623.623 0 00.206-.46.627.627 0 00-.206-.46z"/><path fill="#fff" d="M11.791 9.538L2.187.2a.664.664 0 00-.948 0L.21 1.202a.625.625 0 00-.206.461.62.62 0 00.206.46L8.309 10l-8.1 7.877a.623.623 0 00-.206.46c0 .174.068.328.206.461l1.03 1.002a.66.66 0 00.948 0l9.604-9.34a.623.623 0 00.206-.46.627.627 0 00-.206-.46z"/></svg>