<svg width="6" height="12" xmlns="http://www.w3.org/2000/svg"><g opacity="-1"><path d="M3.992 3.931V2.897c0-.155.008-.276.024-.36a.674.674 0 01.105-.252.43.43 0 01.266-.171c.122-.032.285-.047.489-.047h1.109V-.001H4.21c-1.026 0-1.763.227-2.211.68-.448.454-.672 1.123-.672 2.007V3.93H-.001v2.068h1.329v6h2.664V6h1.774L6 3.931z"/><path d="M3.992 3.931V2.897c0-.155.008-.276.024-.36a.674.674 0 01.105-.252.43.43 0 01.266-.171c.122-.032.285-.047.489-.047h1.109V-.001H4.21c-1.026 0-1.763.227-2.211.68-.448.454-.672 1.123-.672 2.007V3.93H-.001v2.068h1.329v6h2.664V6h1.774L6 3.931z" fill="#1e2633"/></g></svg>