<svg width="12" height="12" xmlns="http://www.w3.org/2000/svg"><g opacity="-1"><path d="M7.215 8.254c.08.237.12.493.12.767 0 .77-.337 1.447-1.01 2.034-.731.63-1.741.945-3.03.945-.283 0-.57-.024-.861-.072a4.552 4.552 0 01-.88-.242 3.316 3.316 0 01-.783-.418 1.952 1.952 0 01-.555-.642A1.788 1.788 0 010 9.75c0-.293.089-.618.267-.974.153-.308.384-.573.692-.797a3.479 3.479 0 011.046-.512 8.36 8.36 0 011.117-.26 8.523 8.523 0 011.082-.097c-.308-.4-.461-.757-.461-1.075a.986.986 0 01.05-.31l.058-.155c.024-.065.04-.117.05-.155-.192.024-.36.036-.504.036a2.627 2.627 0 01-1.843-.707C1.042 4.274.786 3.682.786 2.97c0-.673.228-1.275.685-1.806A3.053 3.053 0 013.158.144a6.443 6.443 0 011.349-.145h3.151l-.973.57H5.71c.342.216.606.519.794.908.187.39.28.796.28 1.22 0 .355-.054.67-.165.947-.11.277-.245.5-.404.668a7.824 7.824 0 01-.476.465 2.851 2.851 0 00-.403.44.81.81 0 00-.166.487c0 .125.04.247.119.368.079.12.182.235.31.346.127.11.268.226.422.346.153.12.307.253.461.4.154.147.295.305.422.476.127.17.23.375.31.614zM5.138 4.582c.21-.29.314-.677.314-1.157 0-.289-.04-.595-.12-.92a4.731 4.731 0 00-.338-.941 2.05 2.05 0 00-.606-.75 1.382 1.382 0 00-.862-.296c-.447 0-.793.166-1.038.498-.246.332-.368.728-.368 1.19 0 .226.027.464.083.714.055.25.14.5.256.75.115.25.25.475.404.674.153.2.34.362.562.487.221.125.455.188.7.188.466 0 .804-.146 1.013-.437zm1.18 5.06c0-.102-.012-.199-.033-.293a3.999 3.999 0 00-.069-.26.914.914 0 00-.126-.248l-.151-.22a1.393 1.393 0 00-.192-.213 11.819 11.819 0 00-.198-.184 11.608 11.608 0 00-.454-.35l-.238-.166a30 30 0 00-.22-.151 5.732 5.732 0 00-1.125.036c-.25.034-.51.094-.779.18-.27.087-.505.198-.707.332a1.585 1.585 0 00-.498.541 1.52 1.52 0 00-.194.772c0 .327.085.619.256.876.17.258.394.46.67.606.277.146.567.256.87.328.302.072.608.108.915.108.284 0 .555-.03.812-.09s.499-.154.725-.282c.226-.127.405-.303.537-.53a1.54 1.54 0 00.198-.792zM12 1.845v.923h-1.846v1.847h-.923V2.768H7.385v-.923H9.23V0h.923v1.846z"/><path d="M7.215 8.254c.08.237.12.493.12.767 0 .77-.337 1.447-1.01 2.034-.731.63-1.741.945-3.03.945-.283 0-.57-.024-.861-.072a4.552 4.552 0 01-.88-.242 3.316 3.316 0 01-.783-.418 1.952 1.952 0 01-.555-.642A1.788 1.788 0 010 9.75c0-.293.089-.618.267-.974.153-.308.384-.573.692-.797a3.479 3.479 0 011.046-.512 8.36 8.36 0 011.117-.26 8.523 8.523 0 011.082-.097c-.308-.4-.461-.757-.461-1.075a.986.986 0 01.05-.31l.058-.155c.024-.065.04-.117.05-.155-.192.024-.36.036-.504.036a2.627 2.627 0 01-1.843-.707C1.042 4.274.786 3.682.786 2.97c0-.673.228-1.275.685-1.806A3.053 3.053 0 013.158.144a6.443 6.443 0 011.349-.145h3.151l-.973.57H5.71c.342.216.606.519.794.908.187.39.28.796.28 1.22 0 .355-.054.67-.165.947-.11.277-.245.5-.404.668a7.824 7.824 0 01-.476.465 2.851 2.851 0 00-.403.44.81.81 0 00-.166.487c0 .125.04.247.119.368.079.12.182.235.31.346.127.11.268.226.422.346.153.12.307.253.461.4.154.147.295.305.422.476.127.17.23.375.31.614zM5.138 4.582c.21-.29.314-.677.314-1.157 0-.289-.04-.595-.12-.92a4.731 4.731 0 00-.338-.941 2.05 2.05 0 00-.606-.75 1.382 1.382 0 00-.862-.296c-.447 0-.793.166-1.038.498-.246.332-.368.728-.368 1.19 0 .226.027.464.083.714.055.25.14.5.256.75.115.25.25.475.404.674.153.2.34.362.562.487.221.125.455.188.7.188.466 0 .804-.146 1.013-.437zm1.18 5.06c0-.102-.012-.199-.033-.293a3.999 3.999 0 00-.069-.26.914.914 0 00-.126-.248l-.151-.22a1.393 1.393 0 00-.192-.213 11.819 11.819 0 00-.198-.184 11.608 11.608 0 00-.454-.35l-.238-.166a30 30 0 00-.22-.151 5.732 5.732 0 00-1.125.036c-.25.034-.51.094-.779.18-.27.087-.505.198-.707.332a1.585 1.585 0 00-.498.541 1.52 1.52 0 00-.194.772c0 .327.085.619.256.876.17.258.394.46.67.606.277.146.567.256.87.328.302.072.608.108.915.108.284 0 .555-.03.812-.09s.499-.154.725-.282c.226-.127.405-.303.537-.53a1.54 1.54 0 00.198-.792zM12 1.845v.923h-1.846v1.847h-.923V2.768H7.385v-.923H9.23V0h.923v1.846z" fill="#1e2633"/></g></svg>