<svg width="15" height="12" xmlns="http://www.w3.org/2000/svg"><g opacity="-1"><path d="M15.002 1.426a6.22 6.22 0 01-1.771.469 2.949 2.949 0 001.352-1.67c-.61.357-1.26.601-1.952.732a2.988 2.988 0 00-2.246-.956c-.85 0-1.576.296-2.176.886-.6.59-.9 1.304-.9 2.142 0 .224.026.456.077.693a8.674 8.674 0 01-3.537-.933A8.696 8.696 0 011.046.554a2.93 2.93 0 00-.42 1.528c0 .518.124 1 .372 1.443.247.443.58.803 1 1.078a3.083 3.083 0 01-1.39-.385v.038c0 .731.233 1.373.7 1.926a3.03 3.03 0 001.765 1.045 3.2 3.2 0 01-.809.103 3.93 3.93 0 01-.58-.047 2.963 2.963 0 001.085 1.495 3.03 3.03 0 001.79.605c-1.118.862-2.39 1.293-3.818 1.293a6.61 6.61 0 01-.743-.037c1.428.906 3.002 1.358 4.722 1.358a9.12 9.12 0 003.075-.51c.958-.34 1.777-.797 2.456-1.369a9.194 9.194 0 001.756-1.972 8.726 8.726 0 001.1-2.33 8.477 8.477 0 00.352-2.825 6.383 6.383 0 001.542-1.565z"/><path d="M15.002 1.426a6.22 6.22 0 01-1.771.469 2.949 2.949 0 001.352-1.67c-.61.357-1.26.601-1.952.732a2.988 2.988 0 00-2.246-.956c-.85 0-1.576.296-2.176.886-.6.59-.9 1.304-.9 2.142 0 .224.026.456.077.693a8.674 8.674 0 01-3.537-.933A8.696 8.696 0 011.046.554a2.93 2.93 0 00-.42 1.528c0 .518.124 1 .372 1.443.247.443.58.803 1 1.078a3.083 3.083 0 01-1.39-.385v.038c0 .731.233 1.373.7 1.926a3.03 3.03 0 001.765 1.045 3.2 3.2 0 01-.809.103 3.93 3.93 0 01-.58-.047 2.963 2.963 0 001.085 1.495 3.03 3.03 0 001.79.605c-1.118.862-2.39 1.293-3.818 1.293a6.61 6.61 0 01-.743-.037c1.428.906 3.002 1.358 4.722 1.358a9.12 9.12 0 003.075-.51c.958-.34 1.777-.797 2.456-1.369a9.194 9.194 0 001.756-1.972 8.726 8.726 0 001.1-2.33 8.477 8.477 0 00.352-2.825 6.383 6.383 0 001.542-1.565z" fill="#1e2633"/></g></svg>