<svg xmlns="http://www.w3.org/2000/svg" width="13" height="13"><path d="M13 12a.96.96 0 01-.297.703A.961.961 0 0112 13a.929.929 0 01-.703-.297l-2.68-2.672A5.349 5.349 0 015.5 11a5.413 5.413 0 01-2.137-.434 5.508 5.508 0 01-1.758-1.172A5.5 5.5 0 01.433 7.637a5.408 5.408 0 01-.434-2.138c0-.745.145-1.457.434-2.137a5.503 5.503 0 011.172-1.757A5.5 5.5 0 013.363.432 5.412 5.412 0 015.5 0c.745 0 1.457.145 2.137.433.68.29 1.265.68 1.758 1.173a5.495 5.495 0 011.172 1.757c.289.68.433 1.392.433 2.137a5.352 5.352 0 01-.969 3.118l2.68 2.68c.193.192.29.427.29.703zM9 5.499a3.37 3.37 0 00-1.027-2.473A3.371 3.371 0 005.5 2a3.37 3.37 0 00-2.473 1.027A3.371 3.371 0 002 5.5a3.37 3.37 0 001.027 2.473A3.372 3.372 0 005.5 9c.963 0 1.788-.342 2.473-1.027A3.372 3.372 0 009 5.5z"/><path d="M13 12a.96.96 0 01-.297.703A.961.961 0 0112 13a.929.929 0 01-.703-.297l-2.68-2.672A5.349 5.349 0 015.5 11a5.413 5.413 0 01-2.137-.434 5.508 5.508 0 01-1.758-1.172A5.5 5.5 0 01.433 7.637a5.408 5.408 0 01-.434-2.138c0-.745.145-1.457.434-2.137a5.503 5.503 0 011.172-1.757A5.5 5.5 0 013.363.432 5.412 5.412 0 015.5 0c.745 0 1.457.145 2.137.433.68.29 1.265.68 1.758 1.173a5.495 5.495 0 011.172 1.757c.289.68.433 1.392.433 2.137a5.352 5.352 0 01-.969 3.118l2.68 2.68c.193.192.29.427.29.703zM9 5.499a3.37 3.37 0 00-1.027-2.473A3.371 3.371 0 005.5 2a3.37 3.37 0 00-2.473 1.027A3.371 3.371 0 002 5.5a3.37 3.37 0 001.027 2.473A3.372 3.372 0 005.5 9c.963 0 1.788-.342 2.473-1.027A3.372 3.372 0 009 5.5z"/></svg>