<svg xmlns="http://www.w3.org/2000/svg" width="15" height="25" viewBox="0 0 15 25"><g><g><path fill="#3c4042" d="M14.004 24.906L.328 13.152a.712.712 0 0 1-.332-.652.71.71 0 0 1 .332-.651L14.004.094a.65.65 0 0 1 .912.257.722.722 0 0 1-.244.959L1.652 12.5l13.02 11.19c.319.195.429.624.244.96a.65.65 0 0 1-.912.256z"/><path fill="#1e2633" d="M14.004 24.906L.328 13.152a.712.712 0 0 1-.332-.652.71.71 0 0 1 .332-.651L14.004.094a.65.65 0 0 1 .912.257.722.722 0 0 1-.244.959L1.652 12.5l13.02 11.19c.319.195.429.624.244.96a.65.65 0 0 1-.912.256z"/></g></g></svg>