<svg xmlns="http://www.w3.org/2000/svg" width="13" height="13" viewBox="0 0 13 13"><g><g><path d="M13 12a.96.96 0 0 1-.297.703A.961.961 0 0 1 12 13a.929.929 0 0 1-.703-.297l-2.68-2.672A5.349 5.349 0 0 1 5.5 11a5.413 5.413 0 0 1-2.137-.434 5.508 5.508 0 0 1-1.758-1.172A5.5 5.5 0 0 1 .433 7.637a5.408 5.408 0 0 1-.434-2.138c0-.745.145-1.457.434-2.137.289-.679.68-1.265 1.172-1.757A5.5 5.5 0 0 1 3.363.432 5.412 5.412 0 0 1 5.5 0c.745 0 1.457.145 2.137.433.68.29 1.265.68 1.758 1.173a5.495 5.495 0 0 1 1.172 1.757c.289.68.433 1.392.433 2.137a5.352 5.352 0 0 1-.969 3.118l2.68 2.68c.193.192.29.427.29.703zM9 5.499a3.37 3.37 0 0 0-1.027-2.473A3.371 3.371 0 0 0 5.5 2a3.37 3.37 0 0 0-2.473 1.027A3.371 3.371 0 0 0 2 5.5c0 .964.342 1.788 1.027 2.473A3.372 3.372 0 0 0 5.5 9c.963 0 1.788-.342 2.473-1.027A3.372 3.372 0 0 0 9 5.5z"/><path d="M13 12a.96.96 0 0 1-.297.703A.961.961 0 0 1 12 13a.929.929 0 0 1-.703-.297l-2.68-2.672A5.349 5.349 0 0 1 5.5 11a5.413 5.413 0 0 1-2.137-.434 5.508 5.508 0 0 1-1.758-1.172A5.5 5.5 0 0 1 .433 7.637a5.408 5.408 0 0 1-.434-2.138c0-.745.145-1.457.434-2.137.289-.679.68-1.265 1.172-1.757A5.5 5.5 0 0 1 3.363.432 5.412 5.412 0 0 1 5.5 0c.745 0 1.457.145 2.137.433.68.29 1.265.68 1.758 1.173a5.495 5.495 0 0 1 1.172 1.757c.289.68.433 1.392.433 2.137a5.352 5.352 0 0 1-.969 3.118l2.68 2.68c.193.192.29.427.29.703zM9 5.499a3.37 3.37 0 0 0-1.027-2.473A3.371 3.371 0 0 0 5.5 2a3.37 3.37 0 0 0-2.473 1.027A3.371 3.371 0 0 0 2 5.5c0 .964.342 1.788 1.027 2.473A3.372 3.372 0 0 0 5.5 9c.963 0 1.788-.342 2.473-1.027A3.372 3.372 0 0 0 9 5.5z"/></g></g></svg>