<svg width="20" height="20" xmlns="http://www.w3.org/2000/svg"><path d="M.2.197a.702.702 0 01.993 0L9.994 9 18.796.197a.702.702 0 11.993.994l-8.801 8.801 8.801 8.802a.702.702 0 11-.993.993l-8.802-8.801-8.801 8.801a.702.702 0 11-.994-.993l8.802-8.802L.199 1.191a.702.702 0 010-.994z" fill="#3c4042"/><path d="M.2.197a.702.702 0 01.993 0L9.994 9 18.796.197a.702.702 0 11.993.994l-8.801 8.801 8.801 8.802a.702.702 0 11-.993.993l-8.802-8.801-8.801 8.801a.702.702 0 11-.994-.993l8.802-8.802L.199 1.191a.702.702 0 010-.994z" fill="#fff"/></svg>